<?xml version="1.0" encoding="UTF-8" standalone="no"?>
<!DOCTYPE svg PUBLIC "-//W3C//DTD SVG 1.1//EN" "http://www.w3.org/Graphics/SVG/1.1/DTD/svg11.dtd">
<svg width="100%" height="100%" viewBox="0 0 1073 248" version="1.1" xmlns="http://www.w3.org/2000/svg" xmlns:xlink="http://www.w3.org/1999/xlink" xml:space="preserve" xmlns:serif="http://www.serif.com/" style="fill-rule:evenodd;clip-rule:evenodd;stroke-linejoin:round;stroke-miterlimit:2;">
    <g transform="matrix(1,0,0,1,-23381.2,-3976.42)">
        <g transform="matrix(1.19062,0,0,6.41481,23207.8,13.7822)">
            <g transform="matrix(0.839895,0,0,0.155889,430.922,627.297)">
                <path d="M0,50.397C5.717,44.915 8.988,37.753 9.815,28.912L9.815,21.839C8.988,12.997 5.717,5.808 0,0.264C-5.72,-5.275 -12.938,-8.046 -21.661,-8.046C-27.793,-8.046 -33.245,-6.601 -38.02,-3.714C-42.794,-0.824 -46.539,3.155 -49.248,8.222C-51.962,13.293 -53.317,19.009 -53.317,25.375C-53.317,31.741 -51.962,37.461 -49.248,42.528C-46.539,47.599 -42.794,51.547 -38.02,54.376C-33.245,57.206 -27.793,58.62 -21.661,58.62C-12.938,58.62 -5.72,55.88 0,50.397M26.261,-21.663L26.261,71.883L9.815,71.883L9.815,53.669C6.279,59.801 1.561,64.516 -4.332,67.815C-10.229,71.118 -17.126,72.767 -25.022,72.767C-33.863,72.767 -41.674,70.733 -48.452,66.667C-55.233,62.599 -60.507,56.941 -64.28,49.69C-68.053,42.44 -69.938,34.159 -69.938,24.845C-69.938,15.649 -68.053,7.487 -64.28,0.353C-60.507,-6.778 -55.202,-12.348 -48.365,-16.358C-41.529,-20.364 -33.747,-22.37 -25.022,-22.37C-17.126,-22.37 -10.229,-20.748 -4.332,-17.507C1.561,-14.263 6.279,-9.577 9.815,-3.449L9.815,-21.663L26.261,-21.663Z" style="fill:rgb(27,20,100);fill-rule:nonzero;"/>
            </g>
        </g>
        <g transform="matrix(1.19062,0,0,6.41481,23207.8,13.7822)">
            <g transform="matrix(0.839895,0,0,0.155889,549.368,638.586)">
                <path d="M0,-94.077L0,-0.531L-16.624,-0.531L-16.624,-20.336C-22.755,-7.013 -34.306,-0.238 -51.282,0C-62.13,0 -70.618,-3.211 -76.747,-9.639C-82.879,-16.062 -85.941,-24.935 -85.941,-36.252L-85.941,-94.077L-69.32,-94.077L-69.32,-40.673C-69.32,-32.773 -67.169,-26.614 -62.866,-22.193C-58.563,-17.773 -52.639,-15.562 -45.094,-15.562C-36.371,-15.678 -29.444,-18.772 -24.316,-24.846C-19.186,-30.916 -16.624,-38.667 -16.624,-48.1L-16.624,-94.077L0,-94.077Z" style="fill:rgb(27,20,100);fill-rule:nonzero;"/>
            </g>
        </g>
        <g transform="matrix(1.19062,0,0,6.41481,23207.8,13.7822)">
            <g transform="matrix(0.839895,0,0,0.155889,613.527,621.577)">
                <path d="M0,102.387C-7.19,106.985 -14.383,109.284 -21.574,109.284C-29.119,109.284 -35.22,106.693 -39.876,101.504C-44.533,96.317 -46.861,88.832 -46.861,79.045L-46.861,-6.897L-30.415,-6.897L-30.415,18.214L-1.592,18.214L-1.592,30.77L-30.415,30.77L-30.415,76.039C-30.415,88.064 -26.523,94.076 -18.743,94.076C-14.383,94.076 -9.609,92.603 -4.419,89.656L0,102.387Z" style="fill:rgb(27,20,100);fill-rule:nonzero;"/>
            </g>
        </g>
        <g transform="matrix(1.19062,0,0,6.41481,23207.8,13.7822)">
            <g transform="matrix(0.839895,0,0,0.155889,648.208,635.691)">
                <path d="M0,-57.471C-4.775,-54.642 -8.488,-50.721 -11.141,-45.712C-13.793,-40.699 -15.12,-35.013 -15.12,-28.647C-15.12,-22.162 -13.793,-16.384 -11.141,-11.317C-8.488,-6.247 -4.775,-2.326 0,0.443C4.775,3.214 10.227,4.598 16.358,4.598C22.369,4.598 27.764,3.214 32.539,0.443C37.314,-2.326 41.027,-6.247 43.68,-11.317C46.332,-16.384 47.659,-22.162 47.659,-28.647C47.659,-35.013 46.332,-40.699 43.68,-45.712C41.027,-50.721 37.314,-54.642 32.539,-57.471C27.764,-60.3 22.369,-61.715 16.358,-61.715C10.227,-61.715 4.775,-60.3 0,-57.471M41.203,-70.026C48.455,-66.017 54.113,-60.447 58.179,-53.316C62.246,-46.181 64.28,-38.02 64.28,-28.824C64.28,-19.628 62.246,-11.433 58.179,-4.244C54.113,2.949 48.455,8.55 41.203,12.556C33.953,16.564 25.668,18.568 16.358,18.568C6.925,18.568 -1.414,16.564 -8.664,12.556C-15.916,8.55 -21.574,2.979 -25.64,-4.155C-29.707,-11.287 -31.741,-19.51 -31.741,-28.824C-31.741,-38.02 -29.707,-46.181 -25.64,-53.316C-21.574,-60.447 -15.916,-66.017 -8.664,-70.026C-1.414,-74.033 6.925,-76.039 16.358,-76.039C25.668,-76.039 33.953,-74.033 41.203,-70.026" style="fill:rgb(27,20,100);fill-rule:nonzero;"/>
            </g>
        </g>
        <g transform="matrix(1.19062,0,0,6.41481,23207.8,13.7822)">
            <g transform="matrix(0.839895,0,0,0.155889,844.183,636.987)">
                <path d="M0,-74.625C6.129,-68.139 9.194,-59.298 9.194,-48.099L9.194,9.726L-7.427,9.726L-7.427,-43.679C-7.427,-51.575 -9.58,-57.765 -13.881,-62.246C-18.187,-66.725 -24.11,-68.966 -31.653,-68.966C-40.494,-68.728 -47.453,-65.606 -52.521,-59.593C-57.589,-53.581 -60.124,-45.859 -60.124,-36.428L-60.124,9.726L-76.747,9.726L-76.747,-43.679C-76.747,-51.575 -78.869,-57.765 -83.113,-62.246C-87.357,-66.725 -93.312,-68.966 -100.973,-68.966C-109.814,-68.728 -116.799,-65.606 -121.929,-59.593C-127.056,-53.581 -129.621,-45.859 -129.621,-36.428L-129.621,9.726L-146.065,9.726L-146.065,-83.82L-129.621,-83.82L-129.621,-64.191C-123.492,-77.392 -111.88,-84.113 -94.785,-84.351C-86.18,-84.351 -79.018,-82.287 -73.299,-78.161C-67.582,-74.033 -63.721,-68.259 -61.715,-60.832C-55.941,-76.273 -43.798,-84.113 -25.287,-84.351C-14.561,-84.351 -6.132,-81.106 0,-74.625" style="fill:rgb(27,20,100);fill-rule:nonzero;"/>
            </g>
        </g>
        <g transform="matrix(1.19062,0,0,6.41481,23207.8,13.7822)">
            <g transform="matrix(0.839895,0,0,0.155889,927.577,627.297)">
                <path d="M0,50.397C5.717,44.915 8.988,37.753 9.815,28.912L9.815,21.839C8.988,12.997 5.717,5.808 0,0.264C-5.72,-5.275 -12.938,-8.046 -21.661,-8.046C-27.793,-8.046 -33.245,-6.601 -38.02,-3.714C-42.794,-0.824 -46.539,3.155 -49.248,8.222C-51.962,13.293 -53.317,19.009 -53.317,25.375C-53.317,31.741 -51.962,37.461 -49.248,42.528C-46.539,47.599 -42.794,51.547 -38.02,54.376C-33.245,57.206 -27.793,58.62 -21.661,58.62C-12.938,58.62 -5.72,55.88 0,50.397M26.26,-21.663L26.26,71.883L9.815,71.883L9.815,53.669C6.279,59.801 1.561,64.516 -4.332,67.815C-10.229,71.118 -17.126,72.767 -25.022,72.767C-33.863,72.767 -41.674,70.733 -48.452,66.667C-55.233,62.599 -60.507,56.941 -64.28,49.69C-68.053,42.44 -69.938,34.159 -69.938,24.845C-69.938,15.649 -68.053,7.487 -64.28,0.353C-60.507,-6.778 -55.202,-12.348 -48.365,-16.358C-41.529,-20.364 -33.747,-22.37 -25.022,-22.37C-17.126,-22.37 -10.229,-20.748 -4.332,-17.507C1.561,-14.263 6.279,-9.577 9.815,-3.449L9.815,-21.663L26.26,-21.663Z" style="fill:rgb(54,199,243);fill-rule:nonzero;"/>
            </g>
        </g>
        <g transform="matrix(1.19062,0,0,6.41481,23207.8,13.7822)">
            <g transform="matrix(0.839895,0,0,0.155889,135.373,598.912)">
                <path d="M1001.49,160.423L1017.93,160.423L1017.93,253.969L1001.49,253.969L1001.49,160.423ZM1016.96,127.117C1018.9,129.123 1019.88,131.657 1019.88,134.721C1019.88,137.788 1018.9,140.322 1016.96,142.326C1015.01,144.332 1012.57,145.331 1009.62,145.331C1006.67,145.331 1004.23,144.332 1002.28,142.326C1000.33,140.322 999.363,137.788 999.363,134.721C999.363,131.657 1000.33,129.123 1002.28,127.117C1004.23,125.115 1006.67,124.112 1009.62,124.112C1012.57,124.112 1015.01,125.115 1016.96,127.117" style="fill:rgb(54,199,243);fill-rule:nonzero;"/>
            </g>
        </g>
        <g transform="matrix(1.19062,0,0,6.41481,23207.8,13.7822)">
            <g transform="matrix(-0.839895,0,0,0.155889,232.57,649.495)">
                <path d="M0,-29.439C8.13,-29.439 14.72,-22.849 14.72,-14.719C14.72,-6.59 8.13,0 0,0C-8.129,0 -14.72,-6.59 -14.72,-14.719C-14.72,-22.849 -8.129,-29.439 0,-29.439" style="fill:rgb(27,20,100);fill-rule:nonzero;"/>
            </g>
        </g>
        <g transform="matrix(1.19062,0,0,6.41481,23207.8,13.7822)">
            <g transform="matrix(-0.839895,0,0,0.155889,232.57,656.348)">
                <path d="M0,-29.439C8.13,-29.439 14.72,-22.849 14.72,-14.719C14.72,-6.59 8.13,0 0,0C-8.129,0 -14.72,-6.59 -14.72,-14.719C-14.72,-22.849 -8.129,-29.439 0,-29.439" style="fill:rgb(27,20,100);fill-rule:nonzero;"/>
            </g>
        </g>
        <g transform="matrix(1.19062,0,0,6.41481,23207.8,13.7822)">
            <g transform="matrix(0.839895,0,0,0.155889,268.522,621.641)">
                <path d="M0,29.44C8.129,29.44 14.72,22.85 14.72,14.72C14.72,6.591 8.129,0 0,0C-8.129,0 -14.72,6.591 -14.72,14.72C-14.72,22.85 -8.129,29.44 0,29.44" style="fill:rgb(27,20,100);fill-rule:nonzero;"/>
            </g>
        </g>
        <g transform="matrix(1.19062,0,0,6.41481,23207.8,13.7822)">
            <g transform="matrix(0.839895,0,0,0.155889,268.522,628.253)">
                <path d="M0,29.44C8.129,29.44 14.72,22.85 14.72,14.72C14.72,6.591 8.129,0 0,0C-8.129,0 -14.72,6.591 -14.72,14.72C-14.72,22.85 -8.129,29.44 0,29.44" style="fill:rgb(27,20,100);fill-rule:nonzero;"/>
            </g>
        </g>
        <g transform="matrix(1.19062,0,0,6.41481,23207.8,13.7822)">
            <g transform="matrix(0.839895,0,0,0.155889,268.522,635.107)">
                <path d="M0,29.439C8.129,29.439 14.72,22.849 14.72,14.719C14.72,6.59 8.129,0 0,0C-8.129,0 -14.72,6.59 -14.72,14.719C-14.72,22.849 -8.129,29.439 0,29.439" style="fill:rgb(27,20,100);fill-rule:nonzero;"/>
            </g>
        </g>
        <g transform="matrix(1.19062,0,0,6.41481,23207.8,13.7822)">
            <g transform="matrix(-0.839895,0,0,0.155889,268.522,653.402)">
                <path d="M0,-29.44C8.129,-29.44 14.72,-22.85 14.72,-14.72C14.72,-6.591 8.129,0 0,0C-8.129,0 -14.72,-6.591 -14.72,-14.72C-14.72,-22.85 -8.129,-29.44 0,-29.44" style="fill:rgb(27,20,100);fill-rule:nonzero;"/>
            </g>
        </g>
        <g transform="matrix(1.19062,0,0,6.41481,23207.8,13.7822)">
            <g transform="matrix(0.839895,0,0,0.155889,307.12,624.947)">
                <path d="M0,29.44C8.129,29.44 14.72,22.85 14.72,14.72C14.72,6.59 8.129,0 0,0C-8.13,0 -14.72,6.59 -14.72,14.72C-14.72,22.85 -8.13,29.44 0,29.44" style="fill:rgb(27,20,100);fill-rule:nonzero;"/>
            </g>
        </g>
        <g transform="matrix(1.19062,0,0,6.41481,23207.8,13.7822)">
            <g transform="matrix(-0.839895,0,0,0.155889,307.12,636.149)">
                <path d="M0,-29.44C8.13,-29.44 14.72,-22.85 14.72,-14.72C14.72,-6.591 8.13,0 0,0C-8.129,0 -14.72,-6.591 -14.72,-14.72C-14.72,-22.85 -8.129,-29.44 0,-29.44" style="fill:rgb(27,20,100);fill-rule:nonzero;"/>
            </g>
        </g>
        <g transform="matrix(1.19062,0,0,6.41481,23207.8,13.7822)">
            <g transform="matrix(-0.839895,0,0,0.155889,196.619,653.282)">
                <path d="M0,-29.439C8.13,-29.439 14.72,-22.849 14.72,-14.719C14.72,-6.59 8.13,0 0,0C-8.13,0 -14.72,-6.59 -14.72,-14.719C-14.72,-22.849 -8.13,-29.439 0,-29.439" style="fill:rgb(27,20,100);fill-rule:nonzero;"/>
            </g>
        </g>
        <g transform="matrix(1.19062,0,0,6.41481,23207.8,13.7822)">
            <g transform="matrix(0,-0.155889,-0.839895,0,196.618,635.227)">
                <path d="M-14.72,-14.72C-6.591,-14.72 0,-8.13 0,0C0,8.13 -6.591,14.72 -14.72,14.72C-22.85,14.72 -29.44,8.13 -29.44,0C-29.44,-8.13 -22.85,-14.72 -14.72,-14.72" style="fill:rgb(27,20,100);fill-rule:nonzero;"/>
            </g>
        </g>
        <g transform="matrix(1.19062,0,0,6.41481,23207.8,13.7822)">
            <g transform="matrix(0.839895,0,0,0.155889,196.619,621.521)">
                <path d="M0,29.439C8.13,29.439 14.72,22.849 14.72,14.719C14.72,6.59 8.13,0 0,0C-8.13,0 -14.72,6.59 -14.72,14.719C-14.72,22.849 -8.13,29.439 0,29.439" style="fill:rgb(27,20,100);fill-rule:nonzero;"/>
            </g>
        </g>
        <g transform="matrix(1.19062,0,0,6.41481,23207.8,13.7822)">
            <g transform="matrix(-0.839895,0,0,0.155889,158.021,649.976)">
                <path d="M0,-29.44C8.13,-29.44 14.72,-22.85 14.72,-14.72C14.72,-6.591 8.13,0 0,0C-8.129,0 -14.72,-6.591 -14.72,-14.72C-14.72,-22.85 -8.129,-29.44 0,-29.44" style="fill:rgb(27,20,100);fill-rule:nonzero;"/>
            </g>
        </g>
        <g transform="matrix(1.19062,0,0,6.41481,23207.8,13.7822)">
            <g transform="matrix(0.839895,0,0,0.155889,158.021,631.92)">
                <path d="M0,29.44C8.129,29.44 14.72,22.85 14.72,14.72C14.72,6.591 8.129,0 0,0C-8.13,0 -14.72,6.591 -14.72,14.72C-14.72,22.85 -8.13,29.44 0,29.44" style="fill:rgb(27,20,100);fill-rule:nonzero;"/>
            </g>
        </g>
        <g transform="matrix(1.19062,0,0,6.41481,23207.8,13.7822)">
            <g transform="matrix(0.839895,0,0,0.155889,307.12,624.586)">
                <path d="M0,118.134C8.129,118.134 14.72,111.544 14.72,103.414C14.72,95.285 8.129,88.694 0,88.694C-8.13,88.694 -14.72,95.285 -14.72,103.414C-14.72,104.074 -14.661,104.72 -14.577,105.358L-34.647,116.748C-37.347,113.51 -41.41,111.447 -45.956,111.447C-49.343,111.447 -52.454,112.602 -54.941,114.525L-74.214,103.24C-74.111,102.539 -74.105,101.829 -74.105,101.101C-74.105,94.919 -77.744,89.636 -83.384,87.455L-83.384,70.784C-77.744,68.603 -74.105,63.32 -74.105,57.139C-74.105,49.009 -80.663,42.419 -88.793,42.419C-92.866,42.419 -96.535,44.074 -99.2,46.747L-116.866,39.263C-116.865,39.18 -116.85,39.098 -116.85,39.014C-116.85,38.5 -116.875,37.993 -116.926,37.492L-97.347,25.117C-94.929,26.859 -91.969,27.897 -88.761,27.897C-80.632,27.897 -74.105,21.307 -74.105,13.177C-74.105,6.995 -77.744,1.713 -83.384,-0.468L-83.384,-15.597C-77.744,-17.778 -74.105,-23.061 -74.105,-29.242C-74.105,-37.372 -80.663,-43.962 -88.793,-43.962C-96.922,-43.962 -103.696,-37.372 -103.696,-29.242C-103.696,-23.061 -100.304,-17.778 -94.664,-15.597L-94.664,-0.468C-100.304,1.713 -103.68,6.995 -103.68,13.177C-103.68,14.078 -103.487,14.956 -103.332,15.812L-122.156,27.743C-124.715,25.593 -127.987,24.295 -131.59,24.295C-136.121,24.295 -140.157,26.344 -142.857,29.563L-162.878,19.192C-162.835,18.735 -162.805,18.273 -162.805,17.804C-162.805,9.675 -169.393,3.085 -177.523,3.085C-185.652,3.085 -192.242,9.675 -192.242,17.804C-192.242,25.934 -185.651,32.524 -177.522,32.524C-173.859,32.524 -170.517,31.179 -167.941,28.965L-146.225,40.211C-145.614,47.78 -139.291,53.734 -131.566,53.734C-127.493,53.734 -123.807,52.079 -121.142,49.406L-103.468,56.89C-103.469,56.973 -103.68,57.055 -103.68,57.139C-103.68,63.32 -100.304,68.603 -94.664,70.784L-94.664,87.455C-100.304,89.636 -103.68,94.919 -103.68,101.101C-103.68,101.296 -103.558,101.485 -103.551,101.678L-122.902,115.093C-125.343,113.294 -128.325,112.218 -131.59,112.218C-134.63,112.218 -137.44,113.14 -139.785,114.718L-163.059,103.078C-164.308,96.215 -170.301,91.008 -177.524,91.008C-185.654,91.008 -192.243,97.598 -192.243,105.728C-192.243,113.857 -185.652,120.448 -177.522,120.448C-172.539,120.448 -168.141,117.965 -165.478,114.175L-145.975,123.926C-146.177,124.899 -146.286,125.905 -146.286,126.938C-146.286,135.067 -139.695,141.657 -131.566,141.657C-123.436,141.657 -116.846,135.067 -116.846,126.938C-116.846,126.098 -116.932,125.28 -117.067,124.479L-98.798,111.846C-96.167,114.304 -92.645,115.82 -88.761,115.82C-85.373,115.82 -82.263,114.665 -79.775,112.742L-60.503,124.027C-60.605,124.727 -60.676,125.438 -60.676,126.166C-60.676,134.296 -54.085,140.886 -45.956,140.886C-41.693,140.886 -37.865,139.063 -35.177,136.168L-14.665,146.283C-14.691,146.645 -14.72,147.007 -14.72,147.376C-14.72,155.506 -8.13,162.096 0,162.096C8.129,162.096 14.72,155.506 14.72,147.376C14.72,139.246 8.129,132.656 0,132.656C-3.766,132.656 -7.191,134.082 -9.794,136.409L-29.693,126.596L-9.146,114.935C-6.634,116.933 -3.46,118.134 0,118.134" style="fill:rgb(54,199,243);fill-rule:nonzero;"/>
            </g>
        </g>
        <g transform="matrix(1.19062,0,0,6.41481,23207.8,13.7822)">
            <g transform="matrix(0.839895,0,0,0.155889,387.529,649.609)">
                <path d="M0,-16.264C-1.17,-17.221 -2.884,-17.698 -5.142,-17.698L-11.201,-17.698L-11.201,-6.578L-5.142,-6.578C-2.884,-6.578 -1.17,-7.062 0,-8.033C1.169,-9.002 1.754,-10.377 1.754,-12.158C1.754,-13.938 1.169,-15.307 0,-16.264M1.873,5.82L-3.827,-2.352C-4.066,-2.325 -4.425,-2.312 -4.903,-2.312L-11.201,-2.312L-11.201,5.82L-16.384,5.82L-16.384,-22.084L-4.903,-22.084C-2.486,-22.084 -0.379,-21.685 1.415,-20.888C3.209,-20.091 4.584,-18.948 5.54,-17.46C6.497,-15.971 6.976,-14.204 6.976,-12.158C6.976,-10.059 6.463,-8.252 5.441,-6.736C4.418,-5.222 2.95,-4.092 1.036,-3.349L7.454,5.82L1.873,5.82Z" style="fill:rgb(27,20,100);fill-rule:nonzero;"/>
            </g>
        </g>
        <g transform="matrix(1.19062,0,0,6.41481,23207.8,13.7822)">
            <g transform="matrix(0.839895,0,0,0.155889,413.743,647.008)">
                <path d="M0,17.101C1.488,16.264 2.657,15.094 3.508,13.593C4.358,12.092 4.784,10.411 4.784,8.551C4.784,6.691 4.358,5.01 3.508,3.508C2.657,2.007 1.488,0.837 0,-0C-1.488,-0.837 -3.163,-1.255 -5.023,-1.255C-6.883,-1.255 -8.557,-0.837 -10.045,-0C-11.534,0.837 -12.703,2.007 -13.553,3.508C-14.404,5.01 -14.829,6.691 -14.829,8.551C-14.829,10.411 -14.404,12.092 -13.553,13.593C-12.703,15.094 -11.534,16.264 -10.045,17.101C-8.557,17.938 -6.883,18.356 -5.023,18.356C-3.163,18.356 -1.488,17.938 0,17.101M-12.716,21.047C-15.002,19.811 -16.795,18.098 -18.097,15.905C-19.4,13.712 -20.051,11.261 -20.051,8.551C-20.051,5.84 -19.4,3.389 -18.097,1.196C-16.795,-0.996 -15.002,-2.71 -12.716,-3.946C-10.431,-5.182 -7.866,-5.8 -5.023,-5.8C-2.179,-5.8 0.385,-5.182 2.671,-3.946C4.956,-2.71 6.75,-1.002 8.052,1.176C9.354,3.356 10.005,5.814 10.005,8.551C10.005,11.288 9.354,13.746 8.052,15.925C6.75,18.104 4.956,19.811 2.671,21.047C0.385,22.283 -2.179,22.901 -5.023,22.901C-7.866,22.901 -10.431,22.283 -12.716,21.047" style="fill:rgb(27,20,100);fill-rule:nonzero;"/>
            </g>
        </g>
        <g transform="matrix(1.19062,0,0,6.41481,23207.8,13.7822)">
            <g transform="matrix(0.839895,0,0,0.155889,443.54,647.428)">
                <path d="M0,11.719C0,9.035 -2.007,7.693 -6.019,7.693L-14.39,7.693L-14.39,15.745L-6.019,15.745C-2.007,15.745 0,14.404 0,11.719M-14.39,-4.026L-14.39,3.667L-7.056,3.667C-5.248,3.667 -3.86,3.342 -2.89,2.691C-1.92,2.04 -1.435,1.09 -1.435,-0.16C-1.435,-1.436 -1.92,-2.398 -2.89,-3.05C-3.86,-3.7 -5.248,-4.026 -7.056,-4.026L-14.39,-4.026ZM3.866,7.833C4.77,9.015 5.222,10.483 5.222,12.238C5.222,14.656 4.291,16.523 2.432,17.837C0.571,19.153 -2.14,19.811 -5.7,19.811L-19.572,19.811L-19.572,-8.092L-6.497,-8.092C-3.203,-8.092 -0.665,-7.448 1.116,-6.159C2.896,-4.87 3.787,-3.096 3.787,-0.837C3.787,0.545 3.468,1.767 2.831,2.83C2.193,3.894 1.316,4.717 0.199,5.302C1.741,5.807 2.963,6.651 3.866,7.833" style="fill:rgb(27,20,100);fill-rule:nonzero;"/>
            </g>
        </g>
        <g transform="matrix(1.19062,0,0,6.41481,23207.8,13.7822)">
            <g transform="matrix(0.839895,0,0,0.155889,468.08,647.008)">
                <path d="M0,17.101C1.488,16.264 2.657,15.094 3.508,13.593C4.358,12.092 4.784,10.411 4.784,8.551C4.784,6.691 4.358,5.01 3.508,3.508C2.657,2.007 1.488,0.837 0,-0C-1.488,-0.837 -3.163,-1.255 -5.023,-1.255C-6.883,-1.255 -8.557,-0.837 -10.045,-0C-11.534,0.837 -12.703,2.007 -13.553,3.508C-14.404,5.01 -14.828,6.691 -14.828,8.551C-14.828,10.411 -14.404,12.092 -13.553,13.593C-12.703,15.094 -11.534,16.264 -10.045,17.101C-8.557,17.938 -6.883,18.356 -5.023,18.356C-3.163,18.356 -1.488,17.938 0,17.101M-12.716,21.047C-15.002,19.811 -16.795,18.098 -18.097,15.905C-19.4,13.712 -20.051,11.261 -20.051,8.551C-20.051,5.84 -19.4,3.389 -18.097,1.196C-16.795,-0.996 -15.002,-2.71 -12.716,-3.946C-10.431,-5.182 -7.866,-5.8 -5.023,-5.8C-2.179,-5.8 0.385,-5.182 2.671,-3.946C4.956,-2.71 6.75,-1.002 8.052,1.176C9.354,3.356 10.005,5.814 10.005,8.551C10.005,11.288 9.354,13.746 8.052,15.925C6.75,18.104 4.956,19.811 2.671,21.047C0.385,22.283 -2.179,22.901 -5.023,22.901C-7.866,22.901 -10.431,22.283 -12.716,21.047" style="fill:rgb(27,20,100);fill-rule:nonzero;"/>
            </g>
        </g>
        <g transform="matrix(1.19062,0,0,6.41481,23207.8,13.7822)">
            <g transform="matrix(0.839895,0,0,0.155889,485.858,649.833)">
                <path d="M0,-19.133L-9.248,-19.133L-9.248,-23.518L14.43,-23.518L14.43,-19.133L5.182,-19.133L5.182,4.385L0,4.385L0,-19.133Z" style="fill:rgb(27,20,100);fill-rule:nonzero;"/>
            </g>
        </g>
        <g transform="matrix(1.19062,0,0,6.41481,23207.8,13.7822)">
            <g transform="matrix(0.839895,0,0,0.155889,135.373,638.832)">
                <rect x="436.031" y="47.05" width="5.182" height="27.903" style="fill:rgb(27,20,100);"/>
            </g>
        </g>
        <g transform="matrix(1.19062,0,0,6.41481,23207.8,13.7822)">
            <g transform="matrix(0.839895,0,0,0.155889,517.043,646.393)">
                <path d="M0,24.993C-2.272,23.757 -4.053,22.05 -5.341,19.871C-6.631,17.692 -7.275,15.234 -7.275,12.496C-7.275,9.76 -6.624,7.301 -5.321,5.121C-4.02,2.943 -2.233,1.235 0.04,0C2.312,-1.236 4.856,-1.854 7.673,-1.854C9.959,-1.854 12.045,-1.455 13.932,-0.658C15.818,0.139 17.413,1.295 18.715,2.81L15.367,5.959C13.347,3.78 10.862,2.69 7.913,2.69C5.999,2.69 4.285,3.109 2.77,3.946C1.255,4.783 0.073,5.946 -0.778,7.434C-1.628,8.923 -2.053,10.609 -2.053,12.496C-2.053,14.383 -1.628,16.071 -0.778,17.559C0.073,19.048 1.255,20.21 2.77,21.047C4.285,21.884 5.999,22.302 7.913,22.302C10.862,22.302 13.347,21.2 15.367,18.993L18.715,22.182C17.413,23.698 15.811,24.854 13.912,25.651C12.012,26.448 9.919,26.847 7.634,26.847C4.816,26.847 2.272,26.229 0,24.993" style="fill:rgb(27,20,100);fill-rule:nonzero;"/>
            </g>
        </g>
        <g transform="matrix(1.19062,0,0,6.41481,23207.8,13.7822)">
            <g transform="matrix(0.839895,0,0,0.155889,560.617,647.807)">
                <path d="M0,6.857L-5.262,-5.341L-10.484,6.857L0,6.857ZM1.714,10.922L-12.238,10.922L-14.988,17.38L-20.33,17.38L-7.773,-10.523L-2.671,-10.523L9.926,17.38L4.504,17.38L1.714,10.922Z" style="fill:rgb(27,20,100);fill-rule:nonzero;"/>
            </g>
        </g>
        <g transform="matrix(1.19062,0,0,6.41481,23207.8,13.7822)">
            <g transform="matrix(0.839895,0,0,0.155889,574.275,646.673)">
                <path d="M0,21.804C-2.153,19.639 -3.229,16.536 -3.229,12.496L-3.229,-3.249L1.953,-3.249L1.953,12.297C1.953,17.772 4.318,20.509 9.049,20.509C13.752,20.509 16.104,17.772 16.104,12.297L16.104,-3.249L21.207,-3.249L21.207,12.496C21.207,16.536 20.136,19.639 17.998,21.804C15.858,23.97 12.862,25.053 9.009,25.053C5.156,25.053 2.153,23.97 0,21.804" style="fill:rgb(27,20,100);fill-rule:nonzero;"/>
            </g>
        </g>
        <g transform="matrix(1.19062,0,0,6.41481,23207.8,13.7822)">
            <g transform="matrix(0.839895,0,0,0.155889,602.835,649.833)">
                <path d="M0,-19.133L-9.248,-19.133L-9.248,-23.518L14.43,-23.518L14.43,-19.133L5.181,-19.133L5.181,4.385L0,4.385L0,-19.133Z" style="fill:rgb(27,20,100);fill-rule:nonzero;"/>
            </g>
        </g>
        <g transform="matrix(1.19062,0,0,6.41481,23207.8,13.7822)">
            <g transform="matrix(0.839895,0,0,0.155889,633.402,647.008)">
                <path d="M0,17.101C1.488,16.264 2.657,15.094 3.508,13.593C4.358,12.092 4.783,10.411 4.783,8.551C4.783,6.691 4.358,5.01 3.508,3.508C2.657,2.007 1.488,0.837 0,-0C-1.488,-0.837 -3.163,-1.255 -5.023,-1.255C-6.883,-1.255 -8.557,-0.837 -10.045,-0C-11.533,0.837 -12.703,2.007 -13.553,3.508C-14.404,5.01 -14.828,6.691 -14.828,8.551C-14.828,10.411 -14.404,12.092 -13.553,13.593C-12.703,15.094 -11.533,16.264 -10.045,17.101C-8.557,17.938 -6.883,18.356 -5.023,18.356C-3.163,18.356 -1.488,17.938 0,17.101M-12.716,21.047C-15.002,19.811 -16.795,18.098 -18.097,15.905C-19.4,13.712 -20.051,11.261 -20.051,8.551C-20.051,5.84 -19.4,3.389 -18.097,1.196C-16.795,-0.996 -15.002,-2.71 -12.716,-3.946C-10.431,-5.182 -7.866,-5.8 -5.023,-5.8C-2.179,-5.8 0.385,-5.182 2.67,-3.946C4.956,-2.71 6.75,-1.002 8.052,1.176C9.354,3.356 10.005,5.814 10.005,8.551C10.005,11.288 9.354,13.746 8.052,15.925C6.75,18.104 4.956,19.811 2.67,21.047C0.385,22.283 -2.179,22.901 -5.023,22.901C-7.866,22.901 -10.431,22.283 -12.716,21.047" style="fill:rgb(27,20,100);fill-rule:nonzero;"/>
            </g>
        </g>
        <g transform="matrix(1.19062,0,0,6.41481,23207.8,13.7822)">
            <g transform="matrix(0.839895,0,0,0.155889,668.288,646.166)">
                <path d="M0,27.903L-0.04,9.408L-9.208,24.714L-11.521,24.714L-20.689,9.646L-20.689,27.903L-25.632,27.903L-25.632,0L-21.366,0L-10.285,18.495L0.598,0L4.863,0L4.903,27.903L0,27.903Z" style="fill:rgb(27,20,100);fill-rule:nonzero;"/>
            </g>
        </g>
        <g transform="matrix(1.19062,0,0,6.41481,23207.8,13.7822)">
            <g transform="matrix(0.839895,0,0,0.155889,692.828,647.807)">
                <path d="M0,6.857L-5.262,-5.341L-10.484,6.857L0,6.857ZM1.714,10.922L-12.238,10.922L-14.988,17.38L-20.33,17.38L-7.773,-10.523L-2.671,-10.523L9.926,17.38L4.504,17.38L1.714,10.922Z" style="fill:rgb(27,20,100);fill-rule:nonzero;"/>
            </g>
        </g>
        <g transform="matrix(1.19062,0,0,6.41481,23207.8,13.7822)">
            <g transform="matrix(0.839895,0,0,0.155889,708.061,649.833)">
                <path d="M0,-19.133L-9.248,-19.133L-9.248,-23.518L14.43,-23.518L14.43,-19.133L5.181,-19.133L5.181,4.385L0,4.385L0,-19.133Z" style="fill:rgb(27,20,100);fill-rule:nonzero;"/>
            </g>
        </g>
        <g transform="matrix(1.19062,0,0,6.41481,23207.8,13.7822)">
            <g transform="matrix(0.839895,0,0,0.155889,135.373,638.832)">
                <rect x="700.591" y="47.05" width="5.182" height="27.903" style="fill:rgb(27,20,100);"/>
            </g>
        </g>
        <g transform="matrix(1.19062,0,0,6.41481,23207.8,13.7822)">
            <g transform="matrix(0.839895,0,0,0.155889,749.977,647.008)">
                <path d="M0,17.101C1.488,16.264 2.657,15.094 3.508,13.593C4.358,12.092 4.783,10.411 4.783,8.551C4.783,6.691 4.358,5.01 3.508,3.508C2.657,2.007 1.488,0.837 0,-0C-1.488,-0.837 -3.163,-1.255 -5.023,-1.255C-6.883,-1.255 -8.557,-0.837 -10.045,-0C-11.533,0.837 -12.703,2.007 -13.553,3.508C-14.404,5.01 -14.828,6.691 -14.828,8.551C-14.828,10.411 -14.404,12.092 -13.553,13.593C-12.703,15.094 -11.533,16.264 -10.045,17.101C-8.557,17.938 -6.883,18.356 -5.023,18.356C-3.163,18.356 -1.488,17.938 0,17.101M-12.716,21.047C-15.002,19.811 -16.795,18.098 -18.097,15.905C-19.4,13.712 -20.051,11.261 -20.051,8.551C-20.051,5.84 -19.4,3.389 -18.097,1.196C-16.795,-0.996 -15.002,-2.71 -12.716,-3.946C-10.431,-5.182 -7.866,-5.8 -5.023,-5.8C-2.179,-5.8 0.385,-5.182 2.67,-3.946C4.956,-2.71 6.75,-1.002 8.052,1.176C9.354,3.356 10.005,5.814 10.005,8.551C10.005,11.288 9.354,13.746 8.052,15.925C6.75,18.104 4.956,19.811 2.67,21.047C0.385,22.283 -2.179,22.901 -5.023,22.901C-7.866,22.901 -10.431,22.283 -12.716,21.047" style="fill:rgb(27,20,100);fill-rule:nonzero;"/>
            </g>
        </g>
        <g transform="matrix(1.19062,0,0,6.41481,23207.8,13.7822)">
            <g transform="matrix(0.839895,0,0,0.155889,784.159,650.516)">
                <path d="M0,-27.903L0,0L-4.265,0L-19.652,-18.894L-19.652,0L-24.794,0L-24.794,-27.903L-20.529,-27.903L-5.141,-9.009L-5.141,-27.903L0,-27.903Z" style="fill:rgb(27,20,100);fill-rule:nonzero;"/>
            </g>
        </g>
        <g transform="matrix(1.19062,0,0,6.41481,23207.8,13.7822)">
            <g transform="matrix(0.839895,0,0,0.155889,814.123,648.329)">
                <path d="M0,0.159C1.169,-0.798 1.754,-2.166 1.754,-3.947C1.754,-5.727 1.169,-7.096 0,-8.053C-1.17,-9.009 -2.884,-9.487 -5.142,-9.487L-11.201,-9.487L-11.201,1.593L-5.142,1.593C-2.884,1.593 -1.17,1.116 0,0.159M1.415,-12.676C3.209,-11.879 4.584,-10.737 5.54,-9.249C6.497,-7.76 6.976,-5.993 6.976,-3.947C6.976,-1.927 6.497,-0.166 5.54,1.335C4.584,2.836 3.209,3.986 1.415,4.783C-0.379,5.58 -2.486,5.979 -4.903,5.979L-11.201,5.979L-11.201,14.031L-16.384,14.031L-16.384,-13.872L-4.903,-13.872C-2.486,-13.872 -0.379,-13.473 1.415,-12.676" style="fill:rgb(27,20,100);fill-rule:nonzero;"/>
            </g>
        </g>
        <g transform="matrix(1.19062,0,0,6.41481,23207.8,13.7822)">
            <g transform="matrix(0.839895,0,0,0.155889,824.67,650.516)">
                <path d="M0,-27.903L5.182,-27.903L5.182,-4.385L19.771,-4.385L19.771,0L0,0L0,-27.903Z" style="fill:rgb(27,20,100);fill-rule:nonzero;"/>
            </g>
        </g>
        <g transform="matrix(1.19062,0,0,6.41481,23207.8,13.7822)">
            <g transform="matrix(0.839895,0,0,0.155889,858.987,647.807)">
                <path d="M0,6.857L-5.262,-5.341L-10.484,6.857L0,6.857ZM1.714,10.922L-12.238,10.922L-14.988,17.38L-20.33,17.38L-7.773,-10.523L-2.671,-10.523L9.926,17.38L4.504,17.38L1.714,10.922Z" style="fill:rgb(27,20,100);fill-rule:nonzero;"/>
            </g>
        </g>
        <g transform="matrix(1.19062,0,0,6.41481,23207.8,13.7822)">
            <g transform="matrix(0.839895,0,0,0.155889,874.22,649.833)">
                <path d="M0,-19.133L-9.248,-19.133L-9.248,-23.518L14.429,-23.518L14.429,-19.133L5.181,-19.133L5.181,4.385L0,4.385L0,-19.133Z" style="fill:rgb(27,20,100);fill-rule:nonzero;"/>
            </g>
        </g>
        <g transform="matrix(1.19062,0,0,6.41481,23207.8,13.7822)">
            <g transform="matrix(0.839895,0,0,0.155889,894.307,649.839)">
                <path d="M0,-19.213L0,-10.723L13.474,-10.723L13.474,-6.338L0,-6.338L0,4.345L-5.182,4.345L-5.182,-23.558L15.188,-23.558L15.188,-19.213L0,-19.213Z" style="fill:rgb(27,20,100);fill-rule:nonzero;"/>
            </g>
        </g>
        <g transform="matrix(1.19062,0,0,6.41481,23207.8,13.7822)">
            <g transform="matrix(0.839895,0,0,0.155889,926.514,647.008)">
                <path d="M0,17.101C1.488,16.264 2.657,15.094 3.508,13.593C4.358,12.092 4.783,10.411 4.783,8.551C4.783,6.691 4.358,5.01 3.508,3.508C2.657,2.007 1.488,0.837 0,-0C-1.488,-0.837 -3.163,-1.255 -5.023,-1.255C-6.883,-1.255 -8.557,-0.837 -10.045,-0C-11.533,0.837 -12.703,2.007 -13.553,3.508C-14.404,5.01 -14.828,6.691 -14.828,8.551C-14.828,10.411 -14.404,12.092 -13.553,13.593C-12.703,15.094 -11.533,16.264 -10.045,17.101C-8.557,17.938 -6.883,18.356 -5.023,18.356C-3.163,18.356 -1.488,17.938 0,17.101M-12.716,21.047C-15.002,19.811 -16.795,18.098 -18.097,15.905C-19.4,13.712 -20.051,11.261 -20.051,8.551C-20.051,5.84 -19.4,3.389 -18.097,1.196C-16.795,-0.996 -15.002,-2.71 -12.716,-3.946C-10.431,-5.182 -7.866,-5.8 -5.023,-5.8C-2.179,-5.8 0.385,-5.182 2.67,-3.946C4.956,-2.71 6.75,-1.002 8.052,1.176C9.354,3.356 10.005,5.814 10.005,8.551C10.005,11.288 9.354,13.746 8.052,15.925C6.75,18.104 4.956,19.811 2.67,21.047C0.385,22.283 -2.179,22.901 -5.023,22.901C-7.866,22.901 -10.431,22.283 -12.716,21.047" style="fill:rgb(27,20,100);fill-rule:nonzero;"/>
            </g>
        </g>
        <g transform="matrix(1.19062,0,0,6.41481,23207.8,13.7822)">
            <g transform="matrix(0.839895,0,0,0.155889,953.633,649.609)">
                <path d="M0,-16.264C-1.17,-17.221 -2.884,-17.698 -5.142,-17.698L-11.201,-17.698L-11.201,-6.578L-5.142,-6.578C-2.884,-6.578 -1.17,-7.062 0,-8.033C1.169,-9.002 1.754,-10.377 1.754,-12.158C1.754,-13.938 1.169,-15.307 0,-16.264M1.873,5.82L-3.827,-2.352C-4.066,-2.325 -4.425,-2.312 -4.903,-2.312L-11.201,-2.312L-11.201,5.82L-16.384,5.82L-16.384,-22.084L-4.903,-22.084C-2.486,-22.084 -0.379,-21.685 1.415,-20.888C3.209,-20.091 4.584,-18.948 5.54,-17.46C6.497,-15.971 6.976,-14.204 6.976,-12.158C6.976,-10.059 6.464,-8.252 5.441,-6.736C4.417,-5.222 2.95,-4.092 1.036,-3.349L7.454,5.82L1.873,5.82Z" style="fill:rgb(27,20,100);fill-rule:nonzero;"/>
            </g>
        </g>
        <g transform="matrix(1.19062,0,0,6.41481,23207.8,13.7822)">
            <g transform="matrix(0.839895,0,0,0.155889,986.208,646.166)">
                <path d="M0,27.903L-0.04,9.408L-9.208,24.714L-11.521,24.714L-20.689,9.646L-20.689,27.903L-25.632,27.903L-25.632,0L-21.366,0L-10.285,18.495L0.598,0L4.863,0L4.903,27.903L0,27.903Z" style="fill:rgb(27,20,100);fill-rule:nonzero;"/>
            </g>
        </g>
        <g transform="matrix(1.19062,0,0,6.41481,23207.8,13.7822)">
            <g transform="matrix(0.839895,0,0,0.155889,1029.99,620.822)">
                <path d="M0,1.14C1.595,1.14 2.83,0.789 3.704,0.086C4.578,-0.617 5.015,-1.596 5.015,-2.85C5.015,-4.103 4.578,-5.072 3.704,-5.756C2.83,-6.44 1.595,-6.783 0,-6.783L-4.219,-6.783L-4.219,1.14L0,1.14ZM8.577,1.425C7.798,2.603 6.688,3.497 5.243,4.104L10.258,11.798L5.357,11.798L0.911,4.959L-4.161,4.959L-4.161,11.798L-9.063,11.798L-9.063,-10.658L0.284,-10.658C3.21,-10.658 5.519,-9.955 7.209,-8.549C8.9,-7.143 9.746,-5.244 9.746,-2.85C9.746,-1.177 9.357,0.248 8.577,1.425M7.893,15.275C10.459,13.756 12.482,11.694 13.964,9.091C15.446,6.489 16.186,3.611 16.186,0.456C16.186,-2.697 15.465,-5.557 14.021,-8.122C12.577,-10.687 10.581,-12.71 8.036,-14.192C5.491,-15.674 2.622,-16.415 -0.571,-16.415C-3.763,-16.415 -6.65,-15.664 -9.234,-14.163C-11.818,-12.662 -13.842,-10.62 -15.304,-8.036C-16.768,-5.452 -17.499,-2.583 -17.499,0.57C-17.499,3.725 -16.768,6.593 -15.304,9.177C-13.842,11.761 -11.828,13.804 -9.262,15.304C-6.698,16.805 -3.838,17.555 -0.685,17.555C2.469,17.555 5.329,16.795 7.893,15.275M9.66,-16.928C12.719,-15.18 15.123,-12.776 16.871,-9.718C18.619,-6.659 19.493,-3.268 19.493,0.456C19.493,4.18 18.599,7.59 16.814,10.687C15.027,13.785 12.596,16.226 9.518,18.012C6.44,19.798 3.039,20.69 -0.685,20.69C-4.408,20.69 -7.801,19.798 -10.858,18.012C-13.918,16.226 -16.331,13.793 -18.097,10.716C-19.864,7.638 -20.748,4.256 -20.748,0.57C-20.748,-3.115 -19.864,-6.497 -18.097,-9.575C-16.331,-12.653 -13.907,-15.085 -10.829,-16.871C-7.752,-18.657 -4.333,-19.55 -0.571,-19.55C3.192,-19.55 6.601,-18.675 9.66,-16.928" style="fill:rgb(27,20,100);fill-rule:nonzero;"/>
            </g>
        </g>
    </g>
</svg>
